name rise36.2859peak64.2979fall75.1499.mot
datacolumns 19
datarows 12
range 3.65165500000000 3.66998700000000
endheader
time	ground_force1_vx	ground_force1_vy	ground_force1_vz	ground_force1_px	ground_force1_py	ground_force1_pz	ground_force2_vx	ground_force2_vy	ground_force2_vz	ground_force2_px	ground_force2_py	ground_force2_pz	ground_torque1_x	ground_torque1_y	ground_torque1_z	ground_torque2_x	ground_torque2_y	ground_torque2_z	
3.65165500000000	-35.25619800000000	802.73928699999999	55.38247800000000	0.22992800000000	0.00000000000000	0.09224200000000	-1.57163900000000	6.72002200000000	1.05877600000000	0.00000000000000	0.00000000000000	0.00000000000000	0.00000000000000	32.30899400000000	0.00000000000000	0.00000000000000	0.40157300000000	0.00000000000000	
3.65331800000000	-35.60711900000000	801.07849699999997	55.18659500000000	0.22893900000000	0.00000000000000	0.09217100000000	-2.22874200000000	10.69548900000000	1.55875500000000	0.00000000000000	0.00000000000000	0.00000000000000	0.00000000000000	32.14852500000000	0.00000000000000	0.00000000000000	0.60227800000000	0.00000000000000	
3.65498400000000	-35.97455200000000	799.32127300000002	54.97461400000000	0.22793800000000	0.00000000000000	0.09209800000000	-2.93858900000000	15.32793700000000	2.11505800000000	0.00000000000000	0.00000000000000	0.00000000000000	0.00000000000000	31.98385100000000	0.00000000000000	0.00000000000000	0.82849300000000	0.00000000000000	
3.65665000000000	-36.35900900000000	797.46644100000003	54.74641700000000	0.22692600000000	0.00000000000000	0.09202300000000	-3.67514700000000	20.54843800000000	2.71199200000000	0.00000000000000	0.00000000000000	0.00000000000000	0.00000000000000	31.81515400000000	0.00000000000000	0.00000000000000	1.07469400000000	0.00000000000000	
3.65832400000000	-36.76094100000000	795.51279699999998	54.50189700000000	0.22590300000000	0.00000000000000	0.09194500000000	-4.40898300000000	26.26303900000000	3.33099900000000	0.41815300000000	0.00000000000000	-0.09999100000000	0.00000000000000	31.64261100000000	0.00000000000000	0.00000000000000	2.28618200000000	0.00000000000000	
3.65998700000000	-37.18073600000000	793.45910200000003	54.24096300000000	0.22486900000000	0.00000000000000	0.09186600000000	-5.10935500000000	32.36070300000000	3.95201500000000	0.42129100000000	0.00000000000000	-0.10076100000000	0.00000000000000	31.46640100000000	0.00000000000000	0.00000000000000	2.74967400000000	0.00000000000000	
3.66164800000000	-37.61871600000000	791.30407800000000	53.96354000000000	0.22382600000000	0.00000000000000	0.09178400000000	-5.74647000000000	38.72289900000000	4.55498900000000	0.42414400000000	0.00000000000000	-0.10145200000000	0.00000000000000	31.28669700000000	0.00000000000000	0.00000000000000	3.21231800000000	0.00000000000000	
3.66331900000000	-38.07513300000000	789.04640800000004	53.66956500000000	0.22277200000000	0.00000000000000	0.09170000000000	-6.29359900000000	45.23346800000000	5.12135100000000	0.42675900000000	0.00000000000000	-0.10207700000000	0.00000000000000	31.10367200000000	0.00000000000000	0.00000000000000	3.66167000000000	0.00000000000000	
3.66498300000000	-38.55016600000000	786.68473200000005	53.35899100000000	0.22171000000000	0.00000000000000	0.09161400000000	-6.72878500000000	51.78744600000000	5.63524100000000	0.42917600000000	0.00000000000000	-0.10264600000000	0.00000000000000	30.91749100000000	0.00000000000000	0.00000000000000	4.08682600000000	0.00000000000000	
3.66665500000000	-39.04391800000000	784.21764900000005	53.03178800000000	0.22063800000000	0.00000000000000	0.09152600000000	-7.03596800000000	58.29791100000000	6.08437200000000	0.43142400000000	0.00000000000000	-0.10316800000000	0.00000000000000	30.72831700000000	0.00000000000000	0.00000000000000	4.47905300000000	0.00000000000000	
3.66832400000000	-39.55641500000000	781.64371400000005	52.68793900000000	0.21955900000000	0.00000000000000	0.09143500000000	-7.20548900000000	64.70036600000000	6.46048900000000	0.43352900000000	0.00000000000000	-0.10364900000000	0.00000000000000	30.53630500000000	0.00000000000000	0.00000000000000	4.83214800000000	0.00000000000000	
3.66998700000000	-40.08760100000000	778.96143700000005	52.32744700000000	0.21847200000000	0.00000000000000	0.09134200000000	-7.23399200000000	70.95459900000000	6.75942300000000	0.43551200000000	0.00000000000000	-0.10409500000000	0.00000000000000	30.34160500000000	0.00000000000000	0.00000000000000	5.14254200000000	0.00000000000000	
